<svg width="30" height="24" viewBox="0 0 30 24" fill="none" xmlns="http://www.w3.org/2000/svg">
<rect x="0.5" y="1" width="29" height="22" rx="9.5" stroke="#664972"/>
<path d="M14.2694 19.8528C14.6583 20.245 15.2915 20.2476 15.6836 19.8587L22.0733 13.5215C22.4654 13.1326 22.4679 12.4995 22.079 12.1073C21.6901 11.7151 21.0569 11.7125 20.6648 12.1014L14.9851 17.7345L9.35118 12.0539C8.96224 11.6618 8.32909 11.6591 7.93698 12.048C7.54488 12.4369 7.54231 13.07 7.93125 13.4622L14.2694 19.8528ZM15.0322 6.09473L14.0322 6.09053L13.9794 19.1445L14.9793 19.1487L15.9793 19.1529L16.0322 6.09892L15.0322 6.09473Z" fill="#654878"/>
</svg>
