<svg width="30" height="24" viewBox="0 0 30 24" fill="none" xmlns="http://www.w3.org/2000/svg">
<rect x="0.5" y="1" width="29" height="22" rx="9.5" stroke="#664972"/>
<path d="M15.7193 5.38827C15.3292 4.99734 14.696 4.99669 14.3051 5.38681L7.93551 11.7442C7.54463 12.1343 7.54407 12.7675 7.93425 13.1584C8.32443 13.5493 8.95759 13.55 9.34846 13.1599L15.0103 7.50886L20.6622 13.1715C21.0523 13.5625 21.6855 13.5631 22.0764 13.173C22.4672 12.7829 22.4678 12.1497 22.0776 11.7588L15.7193 5.38827ZM15 19.1487L16 19.1497L16.0116 6.09568L15.0116 6.09465L14.0116 6.09362L14 19.1477L15 19.1487Z" fill="#654878"/>
</svg>
